<svg aria-hidden="true" style="width:0;height:0;position:absolute;overflow:hidden" xmlns="http://www.w3.org/2000/svg"><defs><symbol id="icon-logo" viewBox="0 0 72 32"><path d="M42.45 15.997c0 .261-.008.521 0 .783.089 2.653-.739 5.043-2.069 7.296a32.692 32.692 0 0 0-1.256 2.314c-.317.649-.757 1.104-1.442 1.37-.382.148-.737.405-1.058.669-1.476 1.218-3.15 2.091-4.941 2.705-1.189.408-2.414.767-3.706.751-.385-.004-.771.114-1.157.115s-.772-.124-1.154-.108c-1.666.071-3.21-.441-4.742-.979-1.673-.586-3.15-1.513-4.539-2.617-1.961-1.558-3.358-3.52-4.385-5.765-.554-1.211-1.004-2.46-1.132-3.804-.021-.223-.095-.444-.161-.66-.466-1.507-.198-2.985.09-4.486.22-1.148.447-2.283.877-3.373 1.135-2.884 2.938-5.245 5.435-7.1C19.191 1.563 21.521.614 24.054.206c2.907-.468 5.744-.131 8.497.963 1.374.548 2.67 1.241 3.802 2.159 1.056.856 2.008 1.858 2.908 2.883.815.928 1.394 2.034 1.911 3.162.807 1.762 1.333 3.586 1.28 5.546-.012.362-.003.721-.003 1.08zm-1.115-3.57c-.081-.616-.131-1.329-.281-2.022-.429-1.992-1.583-3.548-3.121-4.818-.873-.722-1.825-1.349-2.763-1.988-.318-.216-.687-.415-1.058-.481-.954-.176-1.919-.34-2.886-.389-1.678-.085-3.186-.518-4.453-1.685-.933-.858-1.948-.941-2.917-.186-1.099.855-2.349 1.357-3.624 1.854-.934.364-1.833.823-2.731 1.276-.75.379-1.187.971-1.177 1.867.006.503-.225.923-.69 1.201-.388.234-.762.492-1.117.773-.993.781-1.767 1.661-1.934 3.027-.132 1.08-.459 2.148-1.2 3.038a2.032 2.032 0 0 0-.442 1.069c-.068.807-.04 1.625-.02 2.437.006.217.1.451.211.642.256.452.534.891.835 1.315.727 1.01 1.359 2.046 1.505 3.329.141 1.244.742 2.257 1.759 3.03 1.473 1.121 2.892 2.311 4.387 3.402.803.588 1.663 1.102 2.723 1.221s2.098.408 3.048.941c.199.107.418.174.643.197 1.34.144 2.581-.187 3.758-.814.369-.197.749-.375 1.131-.546.92-.412 1.94-.682 2.741-1.255.891-.639 1.845-.923 2.868-1.101.442-.077.803-.259 1.091-.588.344-.39.661-.802 1.019-1.179.37-.389.637-.802.702-1.356.099-.849.463-1.599.924-2.319.781-1.217 1.225-2.562 1.456-3.992.061-.375.095-.692-.091-1.023-.538-.953-.318-2.035-.488-3.049-.086-.548.112-1.148.195-1.832l-.002.001zm-6.47-9.518c-.227-.251-.299-.364-.402-.434-.186-.128-.388-.233-.585-.344-1.687-.95-3.535-1.412-5.423-1.743-.379-.067-.778-.037-1.165-.022-.101.004-.221.102-.285.19-.029.04.037.18.092.248.42.5.968.878 1.585 1.092 1.066.383 2.186.594 3.319.623.48.013.958.104 1.436.169.407.058.814.127 1.428.223zM20.532 30.284c-1.132-.925-2.125-1.752-3.135-2.556a114.272 114.272 0 0 0-2.545-1.951c-.096-.072-.247-.07-.458-.124 1.03 1.728 4.469 4.353 6.138 4.632zM12.903 8.699c.683-.521 1.315-1.07 2.008-1.524.972-.633 1.344-1.421 1.115-2.773-.69.564-1.182 1.244-1.714 1.861-.562.651-.979 1.426-1.448 2.155-.036.059.022.175.039.281zm23.03 19.722c-.637-.044-1.279.069-1.678.412-.758.652-1.661.98-2.578 1.306-.482.171-.936.422-1.39.661-.063.033-.074.209-.061.313.004.035.174.092.244.069.824-.281 1.676-.507 2.456-.883.957-.459 1.856-1.04 2.772-1.579.096-.054.147-.181.236-.299zm-24.337-9.039c-.183.54-.147.838-.032 1.156.319.883.513 1.814 1.089 2.585.213.286.257.925.651.787.347-.12-.059-.627-.083-.968-.091-1.304-.777-2.355-1.625-3.561zm6.179-16.24.086.129c.476-.176.956-.343 1.428-.532 1.024-.41 2.045-.829 3.062-1.254a2.48 2.48 0 0 0 .568-.366c.049-.04.04-.175.025-.258-.008-.037-.105-.078-.161-.08a.997.997 0 0 0-.281.047c-1.383.393-2.688.974-3.936 1.68-.292.165-.529.422-.791.636zm24.296 14.005c.084-.097.149-.138.154-.183.135-1.421-.016-2.829-.21-4.233-.01-.071-.108-.172-.174-.18-.073-.01-.188.051-.233.117a.757.757 0 0 0-.133.352 13.522 13.522 0 0 0 .227 3.46c.044.23.235.432.369.668zm-30.809-3.92c.54-.206.621-.578.678-.915.141-.82.494-1.61.377-2.477-.564 1.035-1.065 2.083-1.055 3.392zm13.066 18.007c-1.21-.535-1.538-.591-2.616-.441.457.173.868.448 1.281.452.431.006.898.534 1.335-.011z"/><path d="M26.823 20.593c-.827-.015-1.396-.361-1.817-1.03-.392-.624-1.044-.947-1.642-1.332-.753-.484-1.366-1.03-1.54-2.012-.12-.665.02-1.243.29-1.769.227-.439.632-.847 1.057-1.108.461-.283.844-.55 1.056-1.073.241-.602.848-.638 1.386-.746.506-.102 1.021-.167 1.521-.295.683-.174 1.303-.12 1.802.411.386.412.836.708 1.338.958.522.26.695.564.531 1.107-.111.369-.004.62.134.914.15.321.305.647.408.986.344 1.128-.052 2.077-1.111 2.58-.656.311-1.159.726-1.322 1.456a.682.682 0 0 1-.509.537c-.524.153-1.055.28-1.583.417zm3.474-4.729c.017-1.987-1.49-3.576-3.45-3.579-1.759 0-3.528 1.189-3.596 3.469-.055 1.824 1.465 3.524 3.447 3.53 2.414.012 3.552-1.663 3.599-3.42zm-7.066 1.9c0-.255.024-.385-.004-.503-.26-1.079-.429-2.148.161-3.188.043-.075-.055-.229-.088-.346-.116.037-.255.045-.343.117-.974.799-1.409 2.718.274 3.92zm3.618-5.977c.408.149.64.255.884.321.898.237 1.664.664 2.197 1.451.105.155.241.385.442.209.107-.094.142-.382.08-.526-.083-.191-.272-.43-.454-.468-.493-.103-.763-.46-1.085-.771-.541-.519-1.144-.682-2.065-.215zm-.055 7.822-.012-.075c-.259 0-.52-.022-.774.009-.131.016-.25.127-.374.195.113.1.211.257.341.29.696.175 1.397.213 2.083-.055.117-.046.248-.106.321-.201.065-.08.086-.223.073-.331-.005-.04-.168-.101-.248-.088-.471.074-.94.167-1.409.254l-.002.001zm3.558-2.038c.482-.089.697-.361.725-.779a7.158 7.158 0 0 0-.015-1.056c-.008-.093-.137-.175-.21-.263-.107.101-.325.238-.305.299.196.609-.213 1.155-.194 1.797v.001zM34.761 20.323c-.028.014-.139.107-.26.12-.11.013-.271-.024-.339-.101a17.095 17.095 0 0 1-.982-1.199c-.08-.109-.113-.401-.067-.426.151-.083.445-.17.511-.098.388.427.729.897 1.079 1.357.034.046.024.125.059.346zM18.351 23.668c.179.014.533.025.878.084.086.015.201.183.201.283s-.099.274-.185.295c-.671.166-1.338.207-1.932-.241a.305.305 0 0 1-.095-.246c.013-.067.117-.16.187-.165.257-.022.516-.01.946-.01zM39.372 9.562l.254.139c-.072.129-.116.336-.221.373a10.45 10.45 0 0 1-1.483.423c-.145.028-.356-.114-.489-.231-.154-.136-.062-.431.132-.461.571-.088 1.147-.155 1.807-.242zM22.297 26.541c.268.125.493.16.602.294.3.372.575.764.822 1.174.12.195.01.406-.192.462-.111.031-.313-.06-.395-.16a12.819 12.819 0 0 1-.909-1.238c-.064-.102.035-.308.071-.532zM32.825 11.018c.017-.114 0-.244.053-.294.072-.066.227-.12.302-.085.102.049.167.182.237.286.194.291.387.584.572.883.083.134.194.276.201.42a.563.563 0 0 1-.174.398c-.056.051-.286.018-.343-.053-.371-.471-.816-.913-.849-1.554zM33.98 6.01c-.08.481-.112.836-.206 1.175a.975.975 0 0 1-.321.465c-.106.086-.292.073-.442.105-.012-.14-.056-.286-.031-.419.078-.41.183-.815.277-1.222.007-.032.005-.065.014-.096.074-.245.234-.432.49-.331.129.051.189.276.219.323zM27.054 9.141c.226.028.518.043.796.111.095.023.236.194.219.268-.029.132-.139.306-.255.345a.974.974 0 0 1-.566.003c-.321-.102-.621-.136-.941-.002-.21.088-.408-.004-.464-.214-.075-.281.136-.417.374-.456.253-.042.515-.035.837-.054zM32.064 22.97c-.091.398-.161.748-.259 1.089-.019.067-.161.157-.22.142-.107-.026-.257-.11-.279-.198a1.307 1.307 0 0 1-.016-.577c.076-.35.15-.682.008-1.039-.067-.171-.048-.444.212-.444.14 0 .342.173.405.316.102.229.109.499.149.71zM28.111 22.868c-.052.093-.078.204-.146.251-.423.291-.847.584-1.292.838-.114.065-.313.025-.458-.018-.212-.063-.257-.342-.08-.455.487-.312.977-.621 1.478-.908.08-.046.241.004.345.055.07.035.1.149.154.237zM22.723 4.155c.069.04.198.075.215.139.168.618.33 1.238.463 1.864.037.174-.193.27-.347.166-.486-.327-.788-1.536-.505-2.042.029-.05.101-.075.174-.128zM28.724 5.911c-.146-.097-.304-.147-.325-.231-.023-.091.053-.247.135-.321a13.57 13.57 0 0 1 1.117-.897c.131-.092.402-.157.502-.085.237.166.112.401-.053.573-.222.231-.442.475-.697.662-.196.141-.447.201-.678.299zM19.489 9.177l-.355.335c-.101-.11-.251-.201-.294-.331a23.988 23.988 0 0 1-.448-1.555c-.018-.072.04-.219.1-.243.098-.04.26-.056.335 0 .147.109.316.254.364.418.127.425.193.87.298 1.377zM15.602 17.757c-.326.596-.573 1.207-1.18 1.533-.102.055-.328-.015-.437-.102-.186-.147 0-.27.09-.395.285-.392.548-.8.85-1.177.078-.097.276-.144.411-.131.092.008.166.164.266.272zM19.282 17.807c.17.098.293.128.316.192.038.106.057.272 0 .346-.093.117-.253.184-.39.263-.356.204-.708.42-1.078.594a.49.49 0 0 1-.418-.035c-.207-.147-.134-.383.032-.487.509-.318 1.043-.596 1.538-.873zM37.698 15.106c-.131.295-.315.74-.533 1.167-.034.066-.245.102-.335.063-.083-.037-.174-.205-.157-.295.088-.475.184-.952.332-1.411.045-.14.248-.267.405-.314.058-.017.209.201.281.334.041.075.007.191.007.457zM15.5 11.562c.576.517.508 1.218.572 1.866.012.12-.138.292-.258.379-.063.046-.317-.028-.323-.07a36.078 36.078 0 0 1-.216-1.971c-.004-.056.131-.125.226-.205zM28.97 27.56c.097.026.192.057.285.093.346.16.695.317 1.032.493.161.083.321.188.437.321.133.154-.019.451-.205.41-.628-.136-1.242-.325-1.712-.794-.07-.069-.068-.243-.045-.358.013-.065.135-.11.208-.165zM21.324 11.751c.033.104.147.265.107.366a23.915 23.915 0 0 1-.704 1.578c-.031.064-.161.12-.238.11-.067-.008-.161-.103-.178-.175-.132-.579.284-1.615.747-1.876.048-.027.124-.004.266-.004zM39.288 20.539c-.072-.046-.223-.102-.301-.209-.031-.043.07-.239.157-.301.387-.281.781-.549 1.192-.789.111-.065.341-.069.423.003.075.067.086.321.018.414-.345.48-.779.846-1.49.883zM36.901 24.67c-.298-.031-.428-.034-.552-.062-.053-.012-.131-.074-.132-.114a.425.425 0 0 1 .068-.259.49.49 0 0 1 .241-.15c.46-.138.919-.276 1.386-.388.101-.024.314.043.328.1.031.137-.006.303-.06.441-.029.073-.142.134-.23.16-.399.11-.8.207-1.049.272zM23.064 21.355c-.033.14-.086.45-.19.742-.026.073-.227.142-.319.116s-.201-.178-.198-.274c.01-.541.037-1.083.092-1.622.012-.118.161-.221.247-.331.103.109.27.205.296.329.058.279.046.573.073 1.039zM44.599 4.422c0-1.146.278-2.016.833-2.608.561-.598 1.28-.898 2.157-.898s1.574.258 2.091.775c.524.516.785 1.342.785 2.475s-.277 1.99-.832 2.57c-.555.579-1.296.869-2.223.869-.801 0-1.457-.23-1.968-.69-.265-.239-.473-.57-.625-.992-.145-.428-.218-.929-.218-1.502zm2.961-3.41c-.637 0-1.16.283-1.57.85-.404.567-.606 1.398-.606 2.494s.192 1.896.577 2.4c.385.504.896.756 1.533.756.643 0 1.167-.283 1.571-.85.41-.573.615-1.401.615-2.485 0-1.09-.195-1.89-.587-2.4a1.827 1.827 0 0 0-1.533-.765zM52.101 7.569h-.785V.955h.785v3.042h3.075V.955h.785v6.614h-.785V4.092h-3.075v3.477zM59.997 7.569h-.123l.823-6.614h.312l1.987 6.113L64.973.955h.312l.823 6.614h-.785l-.653-5.291-1.713 5.291h-.596L60.63 2.344l-.634 5.225zM71.35.955c.12.12.18.274.18.463 0 .157-.035.318-.104.482l-1.694 3.43v2.239h-.785V5.538L67.055.956h.804l1.807 4.261 1.646-3.316c.069-.157.104-.321.104-.491s-.047-.302-.142-.397l.076-.057zM1.334 9.306c.489-.022.967-.033 1.434-.033.478 0 .978.05 1.5.15a5.34 5.34 0 0 1 1.567.566 4.08 4.08 0 0 1 1.317 1.049c.367.422.661.982.884 1.682s.333 1.548.333 2.547c0 .999-.167 1.898-.5 2.697-.322.788-.767 1.393-1.334 1.815-1.1.821-2.429 1.232-3.985 1.232-.545 0-1.117-.022-1.717-.067h-.834V9.306h1.334zm.05 11.505c.233.022.528.033.884.033s.622-.006.8-.017c.178-.011.422-.055.734-.133.311-.089.6-.205.867-.35s.545-.355.834-.633c.3-.289.556-.627.767-1.016.478-.91.717-2.098.717-3.563 0-1.043-.128-1.942-.383-2.697-.256-.766-.55-1.332-.884-1.698a3.443 3.443 0 0 0-1.184-.866c-.467-.222-.839-.35-1.117-.383s-.6-.05-.967-.05-.722.017-1.067.05v11.321zM44.869 20.944h-.216V9.29h.567l6.936 10.772V9.29h.216v11.654h-1.217l-6.286-9.656v9.656zM62.638 9.29h.217v6.66c0 1.743-.344 3.025-1.034 3.846-.689.81-1.589 1.215-2.701 1.215-.7 0-1.295-.061-1.784-.183a3.843 3.843 0 0 1-1.384-.716c-.889-.688-1.333-2.076-1.333-4.162V9.29h1.384v6.643c0 2.02.306 3.369.917 4.046.311.333.634.561.967.683.345.122.756.183 1.234.183 1.067 0 1.917-.388 2.551-1.165.645-.788.967-2.037.967-3.746V9.291zM68.542 20.944h-1.384V9.456h-2.884V9.29h7.169v.166h-2.901v11.488z"/></symbol><symbol id="icon-menu" viewBox="0 0 60 32"><path d="M2 0h56a2 2 0 1 1 0 4H2a2 2 0 1 1 0-4zM2 14h56a2 2 0 1 1 0 4H2a2 2 0 1 1 0-4zM2 28h56a2 2 0 1 1 0 4H2a2 2 0 1 1 0-4z"/></symbol><symbol id="icon-close" viewBox="0 0 32 32"><path d="M30.355 32a1.646 1.646 0 0 0 1.163-2.811L2.811.482A1.646 1.646 0 1 0 .483 2.811L29.19 31.517a1.65 1.65 0 0 0 1.165.483z"/><path d="M1.645 32c.422 0 .843-.16 1.163-.483L31.517 2.811A1.647 1.647 0 0 0 29.188.482L.481 29.189A1.646 1.646 0 0 0 1.644 32z"/></symbol></defs></svg>