<svg aria-hidden="true" style="position: absolute; width: 0; height: 0; overflow: hidden;" version="1.1" xmlns="http://www.w3.org/2000/svg" xmlns:xlink="http://www.w3.org/1999/xlink">
    <defs>
        <symbol id="icon-logo" viewBox="0 0 72 32">
            <path d="M42.45 15.997c0 0.261-0.008 0.521 0 0.783 0.089 2.653-0.739 5.043-2.069 7.296-0.446 0.756-0.872 1.524-1.256 2.314-0.317 0.649-0.757 1.104-1.442 1.37-0.382 0.148-0.737 0.405-1.058 0.669-1.476 1.218-3.15 2.091-4.941 2.705-1.189 0.408-2.414 0.767-3.706 0.751-0.385-0.004-0.771 0.114-1.157 0.115s-0.772-0.124-1.154-0.108c-1.666 0.071-3.21-0.441-4.742-0.979-1.673-0.586-3.15-1.513-4.539-2.617-1.961-1.558-3.358-3.52-4.385-5.765-0.554-1.211-1.004-2.46-1.132-3.804-0.021-0.223-0.095-0.444-0.161-0.66-0.466-1.507-0.198-2.985 0.090-4.486 0.22-1.148 0.447-2.283 0.877-3.373 1.135-2.884 2.938-5.245 5.435-7.1 2.081-1.545 4.411-2.494 6.944-2.902 2.907-0.468 5.744-0.131 8.497 0.963 1.374 0.548 2.67 1.241 3.802 2.159 1.056 0.856 2.008 1.858 2.908 2.883 0.815 0.928 1.394 2.034 1.911 3.162 0.807 1.762 1.333 3.586 1.28 5.546-0.012 0.362-0.003 0.721-0.003 1.080zM41.335 12.427c-0.081-0.616-0.131-1.329-0.281-2.022-0.429-1.992-1.583-3.548-3.121-4.818-0.873-0.722-1.825-1.349-2.763-1.988-0.318-0.216-0.687-0.415-1.058-0.481-0.954-0.176-1.919-0.34-2.886-0.389-1.678-0.085-3.186-0.518-4.453-1.685-0.933-0.858-1.948-0.941-2.917-0.186-1.099 0.855-2.349 1.357-3.624 1.854-0.934 0.364-1.833 0.823-2.731 1.276-0.75 0.379-1.187 0.971-1.177 1.867 0.006 0.503-0.225 0.923-0.69 1.201-0.388 0.234-0.762 0.492-1.117 0.773-0.993 0.781-1.767 1.661-1.934 3.027-0.132 1.080-0.459 2.148-1.2 3.038-0.248 0.306-0.401 0.677-0.442 1.069-0.068 0.807-0.040 1.625-0.020 2.437 0.006 0.217 0.1 0.451 0.211 0.642 0.256 0.452 0.534 0.891 0.835 1.315 0.727 1.010 1.359 2.046 1.505 3.329 0.141 1.244 0.742 2.257 1.759 3.030 1.473 1.121 2.892 2.311 4.387 3.402 0.803 0.588 1.663 1.102 2.723 1.221s2.098 0.408 3.048 0.941c0.199 0.107 0.418 0.174 0.643 0.197 1.34 0.144 2.581-0.187 3.758-0.814 0.369-0.197 0.749-0.375 1.131-0.546 0.92-0.412 1.94-0.682 2.741-1.255 0.891-0.639 1.845-0.923 2.868-1.101 0.442-0.077 0.803-0.259 1.091-0.588 0.344-0.39 0.661-0.802 1.019-1.179 0.37-0.389 0.637-0.802 0.702-1.356 0.099-0.849 0.463-1.599 0.924-2.319 0.781-1.217 1.225-2.562 1.456-3.992 0.061-0.375 0.095-0.692-0.091-1.023-0.538-0.953-0.318-2.035-0.488-3.049-0.086-0.548 0.112-1.148 0.195-1.832l-0.002 0.001zM34.865 2.909c-0.227-0.251-0.299-0.364-0.402-0.434-0.186-0.128-0.388-0.233-0.585-0.344-1.687-0.95-3.535-1.412-5.423-1.743-0.379-0.067-0.778-0.037-1.165-0.022-0.101 0.004-0.221 0.102-0.285 0.19-0.029 0.040 0.037 0.18 0.092 0.248 0.42 0.5 0.968 0.878 1.585 1.092 1.066 0.383 2.186 0.594 3.319 0.623 0.48 0.013 0.958 0.104 1.436 0.169 0.407 0.058 0.814 0.127 1.428 0.223zM20.532 30.284c-1.132-0.925-2.125-1.752-3.135-2.556-0.836-0.666-1.691-1.309-2.545-1.951-0.096-0.072-0.247-0.070-0.458-0.124 1.030 1.728 4.469 4.353 6.138 4.632zM12.903 8.699c0.683-0.521 1.315-1.070 2.008-1.524 0.972-0.633 1.344-1.421 1.115-2.773-0.69 0.564-1.182 1.244-1.714 1.861-0.562 0.651-0.979 1.426-1.448 2.155-0.036 0.059 0.022 0.175 0.039 0.281zM35.933 28.421c-0.637-0.044-1.279 0.069-1.678 0.412-0.758 0.652-1.661 0.98-2.578 1.306-0.482 0.171-0.936 0.422-1.39 0.661-0.063 0.033-0.074 0.209-0.061 0.313 0.004 0.035 0.174 0.092 0.244 0.069 0.824-0.281 1.676-0.507 2.456-0.883 0.957-0.459 1.856-1.040 2.772-1.579 0.096-0.054 0.147-0.181 0.236-0.299zM11.596 19.382c-0.183 0.54-0.147 0.838-0.032 1.156 0.319 0.883 0.513 1.814 1.089 2.585 0.213 0.286 0.257 0.925 0.651 0.787 0.347-0.12-0.059-0.627-0.083-0.968-0.091-1.304-0.777-2.355-1.625-3.561zM17.775 3.142l0.086 0.129c0.476-0.176 0.956-0.343 1.428-0.532 1.024-0.41 2.045-0.829 3.062-1.254 0.205-0.087 0.393-0.225 0.568-0.366 0.049-0.040 0.040-0.175 0.025-0.258-0.008-0.037-0.105-0.078-0.161-0.080-0.095 0.002-0.19 0.018-0.281 0.047-1.383 0.393-2.688 0.974-3.936 1.68-0.292 0.165-0.529 0.422-0.791 0.636zM42.071 17.147c0.084-0.097 0.149-0.138 0.154-0.183 0.135-1.421-0.016-2.829-0.21-4.233-0.010-0.071-0.108-0.172-0.174-0.18-0.073-0.010-0.188 0.051-0.233 0.117-0.073 0.104-0.119 0.225-0.133 0.352-0.073 1.158 0.003 2.321 0.227 3.46 0.044 0.23 0.235 0.432 0.369 0.668zM11.262 13.227c0.54-0.206 0.621-0.578 0.678-0.915 0.141-0.82 0.494-1.61 0.377-2.477-0.564 1.035-1.065 2.083-1.055 3.392h-0zM24.328 31.234c-1.21-0.535-1.538-0.591-2.616-0.441 0.457 0.173 0.868 0.448 1.281 0.452 0.431 0.006 0.898 0.534 1.335-0.011h-0z"></path>
            <path d="M26.823 20.593c-0.827-0.015-1.396-0.361-1.817-1.030-0.392-0.624-1.044-0.947-1.642-1.332-0.753-0.484-1.366-1.030-1.54-2.012-0.12-0.665 0.020-1.243 0.29-1.769 0.227-0.439 0.632-0.847 1.057-1.108 0.461-0.283 0.844-0.55 1.056-1.073 0.241-0.602 0.848-0.638 1.386-0.746 0.506-0.102 1.021-0.167 1.521-0.295 0.683-0.174 1.303-0.12 1.802 0.411 0.386 0.412 0.836 0.708 1.338 0.958 0.522 0.26 0.695 0.564 0.531 1.107-0.111 0.369-0.004 0.62 0.134 0.914 0.15 0.321 0.305 0.647 0.408 0.986 0.344 1.128-0.052 2.077-1.111 2.58-0.656 0.311-1.159 0.726-1.322 1.456-0.066 0.294-0.249 0.461-0.509 0.537-0.524 0.153-1.055 0.28-1.583 0.417zM30.297 15.864c0.017-1.987-1.49-3.576-3.45-3.579-1.759 0-3.528 1.189-3.596 3.469-0.055 1.824 1.465 3.524 3.447 3.53 2.414 0.012 3.552-1.663 3.599-3.42zM23.231 17.764c0-0.255 0.024-0.385-0.004-0.503-0.26-1.079-0.429-2.148 0.161-3.188 0.043-0.075-0.055-0.229-0.088-0.346-0.116 0.037-0.255 0.045-0.343 0.117-0.974 0.799-1.409 2.718 0.274 3.92zM26.849 11.787c0.408 0.149 0.64 0.255 0.884 0.321 0.898 0.237 1.664 0.664 2.197 1.451 0.105 0.155 0.241 0.385 0.442 0.209 0.107-0.094 0.142-0.382 0.080-0.526-0.083-0.191-0.272-0.43-0.454-0.468-0.493-0.103-0.763-0.46-1.085-0.771-0.541-0.519-1.144-0.682-2.065-0.215zM26.794 19.609l-0.012-0.075c-0.259 0-0.52-0.022-0.774 0.009-0.131 0.016-0.25 0.127-0.374 0.195 0.113 0.1 0.211 0.257 0.341 0.29 0.696 0.175 1.397 0.213 2.083-0.055 0.117-0.046 0.248-0.106 0.321-0.201 0.065-0.080 0.086-0.223 0.073-0.331-0.005-0.040-0.168-0.101-0.248-0.088-0.471 0.074-0.94 0.167-1.409 0.254l-0.002 0.001zM30.352 17.571c0.482-0.089 0.697-0.361 0.725-0.779 0.021-0.352 0.016-0.705-0.015-1.056-0.008-0.093-0.137-0.175-0.21-0.263-0.107 0.101-0.325 0.238-0.305 0.299 0.196 0.609-0.213 1.155-0.194 1.797v0.001z"></path>
            <path d="M34.761 20.323c-0.028 0.014-0.139 0.107-0.26 0.12-0.11 0.013-0.271-0.024-0.339-0.101-0.343-0.386-0.675-0.783-0.982-1.199-0.080-0.109-0.113-0.401-0.067-0.426 0.151-0.083 0.445-0.17 0.511-0.098 0.388 0.427 0.729 0.897 1.079 1.357 0.034 0.046 0.024 0.125 0.059 0.346z"></path>
            <path d="M18.351 23.668c0.179 0.014 0.533 0.025 0.878 0.084 0.086 0.015 0.201 0.183 0.201 0.283s-0.099 0.274-0.185 0.295c-0.671 0.166-1.338 0.207-1.932-0.241-0.034-0.031-0.059-0.070-0.076-0.112s-0.023-0.089-0.019-0.134c0.013-0.067 0.117-0.16 0.187-0.165 0.257-0.022 0.516-0.010 0.946-0.010z"></path>
            <path d="M39.372 9.562l0.254 0.139c-0.072 0.129-0.116 0.336-0.221 0.373-0.483 0.177-0.979 0.319-1.483 0.423-0.145 0.028-0.356-0.114-0.489-0.231-0.154-0.136-0.062-0.431 0.132-0.461 0.571-0.088 1.147-0.155 1.807-0.242z"></path>
            <path d="M22.297 26.541c0.268 0.125 0.493 0.16 0.602 0.294 0.3 0.372 0.575 0.764 0.822 1.174 0.12 0.195 0.010 0.406-0.192 0.462-0.111 0.031-0.313-0.060-0.395-0.16-0.327-0.394-0.631-0.807-0.909-1.238-0.064-0.102 0.035-0.308 0.071-0.532z"></path>
            <path d="M32.825 11.018c0.017-0.114 0-0.244 0.053-0.294 0.072-0.066 0.227-0.12 0.302-0.085 0.102 0.049 0.167 0.182 0.237 0.286 0.194 0.291 0.387 0.584 0.572 0.883 0.083 0.134 0.194 0.276 0.201 0.42 0.008 0.133-0.073 0.306-0.174 0.398-0.056 0.051-0.286 0.018-0.343-0.053-0.371-0.471-0.816-0.913-0.849-1.554z"></path>
            <path d="M33.98 6.010c-0.080 0.481-0.112 0.836-0.206 1.175-0.059 0.183-0.17 0.345-0.321 0.465-0.106 0.086-0.292 0.073-0.442 0.105-0.012-0.14-0.056-0.286-0.031-0.419 0.078-0.41 0.183-0.815 0.277-1.222 0.007-0.032 0.005-0.065 0.014-0.096 0.074-0.245 0.234-0.432 0.49-0.331 0.129 0.051 0.189 0.276 0.219 0.323z"></path>
            <path d="M27.054 9.141c0.226 0.028 0.518 0.043 0.796 0.111 0.095 0.023 0.236 0.194 0.219 0.268-0.029 0.132-0.139 0.306-0.255 0.345-0.184 0.057-0.381 0.058-0.566 0.003-0.321-0.102-0.621-0.136-0.941-0.002-0.21 0.088-0.408-0.004-0.464-0.214-0.075-0.281 0.136-0.417 0.374-0.456 0.253-0.042 0.515-0.035 0.837-0.054z"></path>
            <path d="M32.064 22.97c-0.091 0.398-0.161 0.748-0.259 1.089-0.019 0.067-0.161 0.157-0.22 0.142-0.107-0.026-0.257-0.11-0.279-0.198-0.048-0.189-0.054-0.386-0.016-0.577 0.076-0.35 0.15-0.682 0.008-1.039-0.067-0.171-0.048-0.444 0.212-0.444 0.14 0 0.342 0.173 0.405 0.316 0.102 0.229 0.109 0.499 0.149 0.71z"></path>
            <path d="M28.111 22.868c-0.052 0.093-0.078 0.204-0.146 0.251-0.423 0.291-0.847 0.584-1.292 0.838-0.114 0.065-0.313 0.025-0.458-0.018-0.212-0.063-0.257-0.342-0.080-0.455 0.487-0.312 0.977-0.621 1.478-0.908 0.080-0.046 0.241 0.004 0.345 0.055 0.070 0.035 0.1 0.149 0.154 0.237z"></path>
            <path d="M22.723 4.155c0.069 0.040 0.198 0.075 0.215 0.139 0.168 0.618 0.33 1.238 0.463 1.864 0.037 0.174-0.193 0.27-0.347 0.166-0.486-0.327-0.788-1.536-0.505-2.042 0.029-0.050 0.101-0.075 0.174-0.128z"></path>
            <path d="M28.724 5.911c-0.146-0.097-0.304-0.147-0.325-0.231-0.023-0.091 0.053-0.247 0.135-0.321 0.356-0.318 0.729-0.618 1.117-0.897 0.131-0.092 0.402-0.157 0.502-0.085 0.237 0.166 0.112 0.401-0.053 0.573-0.222 0.231-0.442 0.475-0.697 0.662-0.196 0.141-0.447 0.201-0.678 0.299z"></path>
            <path d="M19.489 9.177l-0.355 0.335c-0.101-0.11-0.251-0.201-0.294-0.331-0.17-0.512-0.313-1.033-0.448-1.555-0.018-0.072 0.040-0.219 0.1-0.243 0.098-0.040 0.26-0.056 0.335 0 0.147 0.109 0.316 0.254 0.364 0.418 0.127 0.425 0.193 0.87 0.298 1.377z"></path>
            <path d="M15.602 17.757c-0.326 0.596-0.573 1.207-1.18 1.533-0.102 0.055-0.328-0.015-0.437-0.102-0.186-0.147 0-0.27 0.090-0.395 0.285-0.392 0.548-0.8 0.85-1.177 0.078-0.097 0.276-0.144 0.411-0.131 0.092 0.008 0.166 0.164 0.266 0.272z"></path>
            <path d="M19.282 17.807c0.17 0.098 0.293 0.128 0.316 0.192 0.038 0.106 0.057 0.272 0 0.346-0.093 0.117-0.253 0.184-0.39 0.263-0.356 0.204-0.708 0.42-1.078 0.594-0.113 0.053-0.317 0.037-0.418-0.035-0.207-0.147-0.134-0.383 0.032-0.487 0.509-0.318 1.043-0.596 1.538-0.873z"></path>
            <path d="M37.698 15.106c-0.131 0.295-0.315 0.74-0.533 1.167-0.034 0.066-0.245 0.102-0.335 0.063-0.083-0.037-0.174-0.205-0.157-0.295 0.088-0.475 0.184-0.952 0.332-1.411 0.045-0.14 0.248-0.267 0.405-0.314 0.058-0.017 0.209 0.201 0.281 0.334 0.041 0.075 0.007 0.191 0.007 0.457z"></path>
            <path d="M15.5 11.562c0.576 0.517 0.508 1.218 0.572 1.866 0.012 0.12-0.138 0.292-0.258 0.379-0.063 0.046-0.317-0.028-0.323-0.070-0.091-0.654-0.161-1.312-0.216-1.971-0.004-0.056 0.131-0.125 0.226-0.205z"></path>
            <path d="M28.97 27.56c0.097 0.026 0.192 0.057 0.285 0.093 0.346 0.16 0.695 0.317 1.032 0.493 0.161 0.083 0.321 0.188 0.437 0.321 0.133 0.154-0.019 0.451-0.205 0.41-0.628-0.136-1.242-0.325-1.712-0.794-0.070-0.069-0.068-0.243-0.045-0.358 0.013-0.065 0.135-0.11 0.208-0.165z"></path>
            <path d="M21.324 11.751c0.033 0.104 0.147 0.265 0.107 0.366-0.211 0.536-0.455 1.059-0.704 1.578-0.031 0.064-0.161 0.12-0.238 0.11-0.067-0.008-0.161-0.103-0.178-0.175-0.132-0.579 0.284-1.615 0.747-1.876 0.048-0.027 0.124-0.004 0.266-0.004z"></path>
            <path d="M39.288 20.539c-0.072-0.046-0.223-0.102-0.301-0.209-0.031-0.043 0.070-0.239 0.157-0.301 0.387-0.281 0.781-0.549 1.192-0.789 0.111-0.065 0.341-0.069 0.423 0.003 0.075 0.067 0.086 0.321 0.018 0.414-0.345 0.48-0.779 0.846-1.49 0.883z"></path>
            <path d="M36.901 24.67c-0.298-0.031-0.428-0.034-0.552-0.062-0.053-0.012-0.131-0.074-0.132-0.114-0.006-0.091 0.018-0.182 0.068-0.259 0.064-0.073 0.148-0.125 0.241-0.15 0.46-0.138 0.919-0.276 1.386-0.388 0.101-0.024 0.314 0.043 0.328 0.1 0.031 0.137-0.006 0.303-0.060 0.441-0.029 0.073-0.142 0.134-0.23 0.16-0.399 0.11-0.8 0.207-1.049 0.272z"></path>
            <path d="M23.064 21.355c-0.033 0.14-0.086 0.45-0.19 0.742-0.026 0.073-0.227 0.142-0.319 0.116s-0.201-0.178-0.198-0.274c0.010-0.541 0.037-1.083 0.092-1.622 0.012-0.118 0.161-0.221 0.247-0.331 0.103 0.109 0.27 0.205 0.296 0.329 0.058 0.279 0.046 0.573 0.073 1.039z"></path>
            <path d="M44.599 4.422c0-1.146 0.278-2.016 0.833-2.608 0.561-0.598 1.28-0.898 2.157-0.898s1.574 0.258 2.091 0.775c0.524 0.516 0.785 1.342 0.785 2.475s-0.277 1.99-0.832 2.57c-0.555 0.579-1.296 0.869-2.223 0.869-0.801 0-1.457-0.23-1.968-0.69-0.265-0.239-0.473-0.57-0.625-0.992-0.145-0.428-0.218-0.929-0.218-1.502zM47.56 1.012c-0.637 0-1.16 0.283-1.57 0.85-0.404 0.567-0.606 1.398-0.606 2.494s0.192 1.896 0.577 2.4c0.385 0.504 0.896 0.756 1.533 0.756 0.643 0 1.167-0.283 1.571-0.85 0.41-0.573 0.615-1.401 0.615-2.485 0-1.090-0.195-1.89-0.587-2.4-0.385-0.51-0.896-0.765-1.533-0.765z"></path>
            <path d="M52.101 7.569h-0.785v-6.614h0.785v3.042h3.075v-3.042h0.785v6.614h-0.785v-3.477h-3.075v3.477z"></path>
            <path d="M59.997 7.569h-0.123l0.823-6.614h0.312l1.987 6.113 1.977-6.113h0.312l0.823 6.614h-0.785l-0.653-5.291-1.713 5.291h-0.596l-1.731-5.225-0.634 5.225z"></path>
            <path d="M71.35 0.955c0.12 0.12 0.18 0.274 0.18 0.463 0 0.157-0.035 0.318-0.104 0.482l-1.694 3.43v2.239h-0.785v-2.031l-1.892-4.582h0.804l1.807 4.261 1.646-3.316c0.069-0.157 0.104-0.321 0.104-0.491s-0.047-0.302-0.142-0.397l0.076-0.057z"></path>
            <path d="M1.334 9.306c0.489-0.022 0.967-0.033 1.434-0.033 0.478 0 0.978 0.050 1.5 0.15 0.534 0.1 1.056 0.289 1.567 0.566 0.522 0.266 0.961 0.616 1.317 1.049 0.367 0.422 0.661 0.982 0.884 1.682s0.333 1.548 0.333 2.547c0 0.999-0.167 1.898-0.5 2.697-0.322 0.788-0.767 1.393-1.334 1.815-1.1 0.821-2.429 1.232-3.985 1.232-0.545 0-1.117-0.022-1.717-0.067h-0.834v-11.638h1.334zM1.384 20.811c0.233 0.022 0.528 0.033 0.884 0.033s0.622-0.006 0.8-0.017c0.178-0.011 0.422-0.055 0.734-0.133 0.311-0.089 0.6-0.205 0.867-0.35s0.545-0.355 0.834-0.633c0.3-0.289 0.556-0.627 0.767-1.016 0.478-0.91 0.717-2.098 0.717-3.563 0-1.043-0.128-1.942-0.383-2.697-0.256-0.766-0.55-1.332-0.884-1.698-0.322-0.366-0.717-0.655-1.184-0.866-0.467-0.222-0.839-0.35-1.117-0.383s-0.6-0.050-0.967-0.050-0.722 0.017-1.067 0.050v11.321z"></path>
            <path d="M44.869 20.944h-0.216v-11.654h0.567l6.936 10.772v-10.772h0.216v11.654h-1.217l-6.286-9.656v9.656z"></path>
            <path d="M62.638 9.29h0.217v6.66c0 1.743-0.344 3.025-1.034 3.846-0.689 0.81-1.589 1.215-2.701 1.215-0.7 0-1.295-0.061-1.784-0.183-0.489-0.133-0.95-0.372-1.384-0.716-0.889-0.688-1.333-2.076-1.333-4.162v-6.66h1.384v6.643c0 2.020 0.306 3.369 0.917 4.046 0.311 0.333 0.634 0.561 0.967 0.683 0.345 0.122 0.756 0.183 1.234 0.183 1.067 0 1.917-0.388 2.551-1.165 0.645-0.788 0.967-2.037 0.967-3.746v-6.643z"></path>
            <path d="M68.542 20.944h-1.384v-11.488h-2.884v-0.166h7.169v0.166h-2.901v11.488z"></path>
        </symbol>
        <symbol id="icon-menu" viewBox="0 0 60 32">
            <path d="M2 0h56c1.105 0 2 0.895 2 2s-0.895 2-2 2h-56c-1.105 0-2-0.895-2-2s0.895-2 2-2z"></path>
            <path d="M2 14h56c1.105 0 2 0.895 2 2s-0.895 2-2 2h-56c-1.105 0-2-0.895-2-2s0.895-2 2-2z"></path>
            <path d="M2 28h56c1.105 0 2 0.895 2 2s-0.895 2-2 2h-56c-1.105 0-2-0.895-2-2s0.895-2 2-2z"></path>
        </symbol>
        <symbol id="icon-close" viewBox="0 0 32 32">
            <path d="M30.355 32c0.422 0 0.843-0.16 1.163-0.483 0.643-0.643 0.643-1.685 0-2.328l-28.707-28.707c-0.643-0.643-1.685-0.643-2.328 0s-0.643 1.685 0 2.329l28.707 28.706c0.323 0.321 0.744 0.483 1.165 0.483z"></path>
            <path d="M1.645 32c0.422 0 0.843-0.16 1.163-0.483l28.709-28.706c0.643-0.643 0.643-1.686 0-2.329s-1.685-0.643-2.329 0l-28.707 28.707c-0.643 0.643-0.643 1.685 0 2.328 0.323 0.321 0.744 0.483 1.163 0.483z"></path>
        </symbol>
    </defs>
</svg>